<svg xmlns="http://www.w3.org/2000/svg" width="144" height="119" fill="none" fill-rule="evenodd"><g opacity="0" stroke="#f5f5f5"><path d="M-21.5-13h187v132h-187z"/><path d="M-43.5-35h231v176h-231z"/></g><g stroke="#4e6066" fill="#fff"><path d="M65.84 97h12.32l1.54 20.9H64.3z"/><rect x=".5" y="1.3" width="143" height="95.7" rx="3"/></g><g stroke="#e1e1e1" stroke-linejoin="round"><path fill="#f5f5f5" d="M7.1 7.9h129.8v82.5H7.1z"/><path fill="#e1e1e1" d="M7.1 7.9h129.8v7.7H7.1z"/><path fill="#fff" d="M7.1 16.7h129.8v5.5H7.1z"/></g><circle fill="#e1e1e1" cx="72.55" cy="9.55" r="1"/><g stroke="#e1e1e1"><g fill="#e1e1e1"><rect x="15.3" y="111.8" width="6.7" height="3.4" rx="1.7"/><rect x="24.1" y="111.8" width="6.7" height="3.4" rx="1.7"/><rect x="34" y="111.8" width="6.7" height="3.4" rx="1.7"/><rect x="81.3" y="111.8" width="6.7" height="3.4" rx="1.7"/><rect x="90.1" y="111.8" width="6.7" height="3.4" rx="1.7"/><rect x="123.1" y="111.8" width="6.7" height="3.4" rx="1.7"/><rect x="113.2" y="111.8" width="6.7" height="3.4" rx="1.7"/><rect x="103.3" y="111.8" width="6.7" height="3.4" rx="1.7"/><rect x="43.9" y="111.8" width="34.2" height="3.4" rx="1.7"/></g><rect fill="#fff" x="9.3" y="113.5" width="125.4" height="4.4" rx="2"/><rect x="28.5" y="28.2" width="87" height="45.2" rx="1" fill="#fff"/></g><g stroke="#4e6066"><rect fill="#fff" x="35.7" y="36.5" width="72.6" height="13.2" rx="1"/><circle fill="#4e6066" cx="42.3" cy="43.1" r="1.1"/></g><rect stroke="#e1e1e1" fill="#fff" x="35.7" y="54.1" width="34.1" height="7.7" rx="1"/><rect stroke="#00486d" fill="#00486d" x="74.2" y="54.1" width="34.1" height="7.7" rx="1"/><g stroke="#4e6066" fill="#4e6066"><circle cx="47.8" cy="43.1" r="1.1"/><circle cx="53.3" cy="43.1" r="1.1"/><circle cx="58.8" cy="43.1" r="1.1"/><circle cx="64.3" cy="43.1" r="1.1"/><circle cx="69.8" cy="43.1" r="1.1"/></g><g fill="#d8d8d8"><rect stroke="#fff" x="83.5" y="57.9" width="15.5" height="1" rx=".5"/><rect stroke="#e63934" x="45" y="57.9" width="15.5" height="1" rx=".5"/></g></svg>