<?xml version="1.0" encoding="UTF-8"?>
<svg width="161px" height="131px" viewBox="0 0 161 131" version="1.1" xmlns="http://www.w3.org/2000/svg" xmlns:xlink="http://www.w3.org/1999/xlink">
    <!-- Generator: Sketch 55.2 (78181) - https://sketchapp.com -->
    <title>ill_client_id</title>
    <desc>Created with Sketch.</desc>
    <g id="Page-1" stroke="none" stroke-width="1" fill="none" fill-rule="evenodd">
        <g id="ill_client_id" transform="translate(-36.000000, -22.000000)">
            <g id="Group" opacity="0" transform="translate(0.500000, 0.000000)" stroke="#F5F5F5" stroke-width="1.1">
                <polygon id="Path" points="22 22 209 22 209 154 22 154"></polygon>
                <polygon id="Path" points="0 0 231 0 231 176 0 176"></polygon>
            </g>
            <path d="M71.23,37.4 L144.5,37.4 C150.028,37.4 154.5,41.882 154.5,47.4 L154.5,141.78 C154.5,147.308 150.018,151.78 144.5,151.78 L71.23,151.78 C70.4402328,151.78 69.8,151.139767 69.8,150.35 L69.8,38.83 C69.8,38.0402328 70.4402328,37.4 71.23,37.4 Z" id="Path" stroke="#4E6066" stroke-width="1.1" fill="#4E6066" fill-rule="nonzero" opacity="0.1"></path>
            <g id="Group" transform="translate(88.149805, 84.969406) rotate(-9.999988) translate(-88.149805, -84.969406) translate(45.649805, 27.469406)" fill-rule="nonzero">
                <g id="C-link" transform="translate(-0.000000, 0.000000)" fill="#FFFFFF" stroke="#E1E1E1" stroke-width="1.10000023">
                    <path d="M1.4300003,0 L74.7000159,0 C80.228017,0 84.700018,4.48200095 84.700018,10 L84.700018,104.380022 C84.700018,109.908023 80.218017,114.380024 74.7000159,114.380024 L1.4300003,114.380024 C0.647977958,114.380024 0.0109373718,113.75197 0,112.970024 L0,1.4300003 C0,0.640232944 0.640232944,0 1.4300003,0 Z" id="C"></path>
                </g>
                <g transform="translate(7.000001, 61.000013)" fill="#F5F5F5" id="Rectangle">
                    <rect x="7.30000155" y="0.600000127" width="56.1000119" height="5.50000117" rx="0.715"></rect>
                    <rect x="0.700000149" y="16.0000034" width="70.400015" height="5.50000117" rx="0.715"></rect>
                    <rect x="2.90000062" y="24.8000053" width="64.9000138" height="5.50000117" rx="0.715"></rect>
                </g>
                <g id="A-link" transform="translate(25.000005, 9.000002)" fill="#E1E1E1">
                    <polygon id="A" points="0.300000064 0.900000191 34.4000073 0.900000191 34.4000073 46.0000098 0.300000064 46.0000098"></polygon>
                </g>
            </g>
            <g id="Group" transform="translate(69.800000, 35.200000)" fill-rule="nonzero">
                <g id="C-link" fill="#FFFFFF" stroke="#4E6066" stroke-width="1.1">
                    <path d="M1.43,0 L74.7,0 C80.228,0 84.7,4.482 84.7,10 L84.7,104.38 C84.7,109.908 80.218,114.38 74.7,114.38 L1.43,114.38 C0.64797782,114.38 0.0109373695,113.751946 0,112.97 L0,1.43 C0,0.640232808 0.640232808,0 1.43,0 Z" id="C"></path>
                </g>
                <g transform="translate(7.000000, 61.000000)" fill="#F5F5F5" id="Rectangle">
                    <rect x="7.3" y="0.6" width="56.1" height="5.5" rx="0.715"></rect>
                    <rect x="0.7" y="16" width="70.4" height="5.5" rx="0.715"></rect>
                    <rect x="2.9" y="24.8" width="64.9" height="5.5" rx="0.715"></rect>
                </g>
                <g id="B-link" transform="translate(25.000000, 9.000000)" fill="#E1E1E1">
                    <polygon id="B" points="0.3 0.9 34.4 0.9 34.4 46 0.3 46"></polygon>
                </g>
            </g>
            <g id="Group" transform="translate(116.500000, 79.000000)" fill-rule="nonzero" stroke="#4E6066" stroke-width="1.1">
                <rect id="Rectangle" fill="#4E6066" opacity="0.1" x="2.8" y="2.4" width="74.8" height="51.7" rx="3.96"></rect>
                <rect id="Rectangle" fill="#FFFFFF" x="0.6" y="0.2" width="79.2" height="51.7" rx="3.96"></rect>
            </g>
            <path d="M178.793,127.062 L183.013,119.966 C183.771,118.566 181.003,122.512 180.453,123.992 C180.267,124.492 181.39,123.139 181.763,123.327 C184.068,124.487 179.588,125.805 174.805,125.692 C167.337,125.514 158.885,123.338 174.123,123.194 C177.163,123.164 181.318,123.569 186.425,123.699 C186.678,123.705 186.337,124.379 186.521,124.541 C186.881,124.858 187.389,124.976 187.886,124.985 C189.476,125.015 191.116,124.765 192.729,124.655" id="Path" stroke="#E1E1E1" stroke-width="1.1" stroke-linecap="round" stroke-linejoin="round"></path>
            <rect id="Rectangle" stroke="#4E6066" stroke-width="1.1" fill="#E63934" fill-rule="nonzero" x="121.5" y="83.6" width="8.8" height="5.5" rx="0.66"></rect>
            <rect id="Rectangle" fill="#00486D" fill-rule="nonzero" x="175.4" y="93.5" width="15.4" height="22" rx="1.32"></rect>
            <rect id="Rectangle" fill="#F5F5F5" fill-rule="nonzero" x="136.9" y="83.6" width="51.7" height="5.5" rx="0.66"></rect>
            <g id="Group" transform="translate(136.500000, 92.000000)" fill="#E1E1E1" fill-rule="nonzero">
                <rect id="Rectangle" x="0.4" y="0.4" width="34.1" height="3.3" rx="0.66"></rect>
                <rect id="Rectangle" x="0.4" y="7" width="33" height="2.2" rx="0.66"></rect>
            </g>
            <g id="Group" transform="translate(136.500000, 106.000000)" fill="#F5F5F5" fill-rule="nonzero">
                <rect id="Rectangle" x="0.4" y="0.7" width="11" height="2.2" rx="0.66"></rect>
                <rect id="Rectangle" x="0.4" y="6.2" width="22" height="2.2" rx="0.66"></rect>
                <rect id="Rectangle" x="0.4" y="11.7" width="15.4" height="2.2" rx="0.66"></rect>
                <rect id="Rectangle" x="0.4" y="17.2" width="11" height="2.2" rx="0.66"></rect>
            </g>
            <rect id="Rectangle" stroke="#E1E1E1" stroke-width="1.1" fill="#E1E1E1" fill-rule="nonzero" x="121.5" y="119.9" width="7.7" height="5.5" rx="1.1"></rect>
        </g>
    </g>
</svg>