<svg xmlns="http://www.w3.org/2000/svg" xmlns:xlink="http://www.w3.org/1999/xlink" width="115" height="110"><defs><path d="M.362 3.236C2.97 1.08 5.78 0 8.8 0s5.83 1.08 8.438 3.236a1 1 0 0 1 .362.77V14.3a8.8 8.8 0 1 1-17.6 0V4.007a1 1 0 0 1 .362-.77z" id="A"/></defs><g transform="translate(-57.5 -33)" fill="none" fill-rule="evenodd"><g opacity="0" stroke="#f5f5f5"><path d="M22 22h187v132H22z"/><path d="M0 0h231v176H0z"/></g><g transform="matrix(-1 0 0 -1 168.3 141.9)"><g stroke="#4e6066"><path d="M64.772.012c15.732.302 19.057 6.146 24.47 14.77C103.44 37.4 113.347 58.3 108.944 78.1c-4.12 18.526-22.044 26.4-52.844 26.4S8.475 96.626 4.356 78.1c-4.403-19.8 5.503-40.7 19.7-63.316C29.47 6.158 32.795.314 48.528.012L48.53 0H64.77l.001.012z" fill="#4e6066" opacity=".1"/><path d="M61.472 3.312c15.732.302 19.057 6.146 24.47 14.77C100.14 40.7 110.047 61.6 105.644 81.4c-4.12 18.526-22.044 26.4-52.844 26.4S5.175 99.926 1.056 81.4c-4.403-19.8 5.503-40.7 19.7-63.316 5.415-8.626 8.74-14.47 24.47-14.77l.001-.012H61.47l.001.012z" fill="#fff"/></g><path d="M60.803 7.71c14.435.276 17.485 5.628 22.453 13.528C96.282 41.95 105.37 61.09 101.33 79.223 97.552 96.19 81.105 103.4 52.845 103.4S9.148 96.19 5.37 79.223C1.33 61.09 10.418 41.95 23.444 21.24c4.968-7.9 8.018-13.25 22.453-13.528l.001-.01H60.8l.001.01z" fill="#f5f5f5"/><g transform="matrix(-1 0 0 -1 78.1 85.8)"><rect fill="#fff" width="48.4" height="60.5" rx="4"/><path d="M0 8.8V4.4A4.4 4.4 0 0 1 4.4 0h4.4m39.6 8.8V4.4A4.4 4.4 0 0 0 44 0h-4.4M0 51.7v4.4a4.4 4.4 0 0 0 4.4 4.4h4.4m39.6-8.8v4.4a4.4 4.4 0 0 1-4.4 4.4h-4.4" stroke="#4e6066" stroke-linecap="round"/><path d="M34.718 15.143c-6.07-4.08-14.835-4.03-20.904-.003a.99.99 0 0 0-.282 1.337c.278.45.86.58 1.294.3 5.454-3.62 13.424-3.665 18.87-.003a.92.92 0 0 0 1.296-.283c.283-.448.16-1.047-.274-1.338zm4.712 9.85c-3.086-4.93-8.6-8.05-14.52-8.317-6.26-.283-12.117 2.624-15.946 8.386a.99.99 0 0 0 .242 1.345.91.91 0 0 0 1.302-.25c3.457-5.203 8.696-7.802 14.32-7.548 5.316.24 10.28 3.043 13.03 7.435.28.45.86.577 1.295.287s.56-.9.278-1.337zM13.093 42.182c-1.77-5.862-1.134-10.757 1.434-14.26 2.253-3.074 5.898-4.853 9.663-4.853 7.098 0 12.323 5.902 12.323 12.533 0 2-1.56 3.602-3.488 3.602S29.53 37.588 29.53 35.6h-1.872v.134h1.873c0-3.058-2.4-5.537-5.36-5.537-2.914 0-5.2 2.42-5.36 5.488-.096 1.985.532 4.642 1.848 6.97 1.726 3.052 4.474 5.373 8.27 6.576.494.157 1.018-.13 1.17-.64s-.126-1.052-.62-1.208c-3.337-1.058-5.7-3.06-7.203-5.703-1.132-2.002-1.672-4.287-1.594-5.896.1-2.068 1.603-3.65 3.488-3.65 1.926 0 3.488 1.613 3.488 3.602 0 1.3 1.873 1.3 1.873 0V35.6c0-1.3-1.873-1.3-1.873 0 0 3.057 2.408 5.537 5.37 5.537s5.36-2.48 5.36-5.537c0-7.662-6.024-14.467-14.196-14.467-4.34 0-8.54 2.05-11.156 5.62-2.95 4.026-3.673 9.57-1.73 16.005.154.5.68.794 1.173.635s.77-.702.615-1.2zm7.92 4.988c-2.067-1.825-3.937-5.532-4.463-9.106-.603-4.106.548-7.443 3.608-9.316 5.464-3.344 11.85.703 11.85 7.1 0 .534.42.967.936.967s.936-.433.936-.967c0-7.864-7.936-12.9-14.68-8.766-3.8 2.32-5.214 6.447-4.505 11.27.6 4.017 2.673 8.147 5.097 10.287.393.347.984.3 1.32-.107a.99.99 0 0 0-.104-1.364zm5.576-3.862c1.948 1.702 4.78 2.363 8.296 1.93.513-.063.88-.545.82-1.075s-.527-.9-1.04-.846c-3.037.375-5.354-.166-6.864-1.486-1.7-1.478-2.718-4.157-2.657-6.228.016-.534-.4-.98-.907-.996s-.95.403-.964.937c-.078 2.632 1.168 5.883 3.32 7.763z" fill="#00486d" fill-rule="nonzero"/><path d="M3.8 39v12.8a.5.5 0 0 0 .5.5h39.8a.5.5 0 0 0 .5-.5V39H3.8z" stroke="#f5f5f5" fill="#f5f5f5" opacity=".9"/><path d="M3.85 39.05h40.7" stroke="#e63934" stroke-linecap="round"/></g><g stroke="#e1e1e1" fill="#e1e1e1"><circle transform="matrix(-1 0 0 1 60.5 0)" cx="30.25" cy="92.95" r="2.75"/><circle transform="matrix(-1 0 0 1 42.9 0)" cx="21.45" cy="90.75" r="2.75"/></g></g><g transform="translate(144.1 88)"><path d="M0 12.337C0 5.524 5.417 0 12.1 0s12.1 5.524 12.1 12.337V51.7H1a1 1 0 0 1-1-1V12.337z" fill="#4e6066" opacity=".1"/><path d="M3.3 51.7V13.175C3.3 6.506 8.717 1.1 15.4 1.1s12.1 5.406 12.1 12.075V51.7" stroke="#4e6066" fill="#fff" stroke-linecap="round"/><g transform="translate(6.6 4.4)"><mask id="B" fill="#fff"><use xlink:href="#A"/></mask><use fill="#f5f5f5" xlink:href="#A"/><ellipse stroke="#fff" stroke-width=".9" fill="#fff" mask="url(#B)" cx="8.8" cy="23.65" rx="6.6" ry="6.05"/></g><path d="M7.843 6.954C10.2 5.25 12.718 4.4 15.4 4.4s5.2.85 7.557 2.554A3 3 0 0 1 24.2 9.386V18.7a8.8 8.8 0 1 1-17.6 0V9.386a3 3 0 0 1 1.243-2.432z" stroke="#4e6066"/><g fill="#f5f5f5"><rect x="7.7" y="39.6" width="15.4" height="2.2" rx=".81"/><rect x="11" y="44" width="8.8" height="2.2" rx=".81"/></g></g></g></svg>