<svg xmlns="http://www.w3.org/2000/svg" width="102" height="118"><style><![CDATA[.B{stroke-width:1.1}.C{fill:#e1e1e1}.D{stroke:#4e6066}.E{stroke:#e1e1e1}.F{fill-rule:nonzero}]]></style><g fill="none" fill-rule="evenodd"><g opacity="0" stroke="#f5f5f5" class="B"><path d="M-42.5-8h187v132h-187z"/><path d="M-64.5-30h231v176h-231z"/></g><g class="B D"><rect fill="#4e6066" opacity=".1" x="1.5" y="3" width="57" height="114" rx="7.7"/><rect fill="#fff" x="3.5" y="1" width="57" height="114" rx="7.7"/></g><g stroke-linejoin="round" class="B"><path stroke="#f5f5f5" fill="#f5f5f5" d="M6.5 13h50v86h-50z"/><path d="M6.5 13h50v11h-50z" class="C E"/></g><path d="M25 8a.5.5 0 1 0 0-1 .5.5 0 1 0 0 1z" stroke-width=".55" class="C E"/><g class="B"><ellipse fill="#e63934" cx="31.5" cy="107.5" rx="3" ry="3.5" class="D"/><rect x="29.05" y="7.55" width="8.9" height="1" rx=".5" class="C E"/></g><g fill="#fff"><rect x="9.5" y="29" width="46" height="11" rx="1.1"/><rect x="9.5" y="43" width="46" height="11" rx="1.1"/><rect x="9.5" y="72" width="46" height="9" rx="1.1"/><rect x="9.5" y="58" width="46" height="2" rx="1"/><rect x="17.5" y="63" width="28" height="2" rx="1"/></g><g class="B D F"><path d="M79.387 38.475C78.04 37.114 75.376 36 73.47 36H44.967c-1.907 0-3.467 1.575-3.467 3.5v63c0 1.925 1.56 3.5 3.467 3.5h45.067c1.907 0 3.467-1.575 3.467-3.5V56.223c0-1.925-1.102-4.614-2.45-5.975L79.387 38.475z" fill="#4e6066" opacity=".1"/><g fill="#fff"><path d="M81.387 35.475C80.04 34.114 77.376 33 75.47 33H46.967c-1.907 0-3.467 1.575-3.467 3.5v63c0 1.925 1.56 3.5 3.467 3.5h45.067c1.907 0 3.467-1.575 3.467-3.5V53.223c0-1.925-1.102-4.614-2.45-5.975L81.387 35.475z"/><path d="M86.387 31.475C85.04 30.114 82.376 29 80.47 29H51.967c-1.907 0-3.467 1.575-3.467 3.5v63c0 1.925 1.56 3.5 3.467 3.5h45.067c1.907 0 3.467-1.575 3.467-3.5V49.223c0-1.925-1.102-4.614-2.45-5.975L86.387 31.475z"/></g></g><g stroke="#fff" class="B"><path d="M92.5 88.267C92.5 90.32 90.986 92 89.136 92H58.864c-1.85 0-3.364-1.68-3.364-3.733V67.733C55.5 65.68 57.014 64 58.864 64h30.273c1.85 0 3.364 1.68 3.364 3.733v20.533z" fill="#00486d" class="F"/><g fill="#fff"><path d="M67.05 64.55h1v26.9h-1zm14 0h1v26.9h-1z"/><path d="M81.05 72.55h10.9v1h-10.9zm0 11h10.9v1h-10.9zm0-6h10.9v1h-10.9zm-25-5h10.9v1h-10.9zm0 11h10.9v1h-10.9zm0-6h10.9v1h-10.9z"/></g></g><rect fill="#f5f5f5" x="53.5" y="37" width="26" height="6" rx=".66"/><rect x="53.5" y="46" width="34" height="3" rx=".66" class="C"/></g></svg>