<svg xmlns="http://www.w3.org/2000/svg" width="154" height="107"><style><![CDATA[.B{fill:#f5f5f5}.C{stroke:#4e6066}.D{stroke:#e1e1e1}.E{fill:#d8d8d8}.F{font-family:Flama-Semibold, Flama}]]></style><g fill="none" fill-rule="evenodd"><g opacity="0" stroke="#f5f5f5"><path d="M-17.5-13h187v132h-187z"/><path d="M-39.5-35h231v176h-231z"/></g><g class="D"><rect fill="#fff" x="1.2" y="11.2" width="143" height="94.6" rx="1"/><g fill="#e1e1e1"><circle cx="5.05" cy="15.05" r="1"/><circle cx="8.35" cy="15.05" r="1"/><circle cx="11.65" cy="15.05" r="1"/></g><path d="M19.52 15.6h18.36a1 1 0 0 1 .949.684l.87 2.616h-22l.872-2.616a1 1 0 0 1 .949-.684zM1.2 18.9h143v7.7H1.2z" class="B"/></g><rect x="23.2" y="36.5" width="99" height="6.6" rx="1" class="B"/><rect x="23.2" y="90.4" width="99" height="6.6" rx="1" class="B"/><rect x="23.2" y="47.5" width="99" height="31.9" rx="1" class="B"/><path d="M75.272 42.987l21.1 35.17a3 3 0 0 1-2.572 4.543H51.6a3 3 0 0 1-2.572-4.543l21.1-35.17a3 3 0 0 1 5.145 0z" fill="#fff" class="C"/><text font-size="30" font-weight="500" fill="#00486d" class="F"><tspan x="68.3" y="76.9">!</tspan></text><g class="C"><rect fill="#4e6066" opacity=".1" x="6.7" y="4.6" width="143" height="94.6" rx="1"/><rect fill="#fff" x="10" y="1.3" width="143" height="94.6" rx="1"/><circle cx="13.85" cy="5.15" r="1" class="E"/></g><circle stroke="#abb3b6" cx="17.15" cy="5.15" r="1" class="E"/><g class="D"><circle cx="20.45" cy="5.15" r="1" class="E"/><path d="M52.52 5.7H70.88a1 1 0 0 1 .949.684L72.7 9h-22l.872-2.616a1 1 0 0 1 .949-.684z" class="B"/></g><path d="M28.32 5.7H46.68a1 1 0 0 1 .949.684L48.5 9h-22l.872-2.616a1 1 0 0 1 .949-.684z" fill="#e63934" class="C"/><g class="B"><path d="M76.72 5.7H95.08a1 1 0 0 1 .949.684L96.9 9h-22l.872-2.616a1 1 0 0 1 .949-.684z" class="D"/><path d="M10 9h143v7.7H10z" class="C"/><rect x="32" y="26.6" width="99" height="6.6" rx="1"/><rect x="32" y="80.5" width="99" height="6.6" rx="1"/><rect x="32" y="37.6" width="99" height="31.9" rx="1"/></g><path d="M84.072 33.087l21.1 35.17a3 3 0 0 1-2.572 4.543H60.4a3 3 0 0 1-2.572-4.543l21.1-35.17a3 3 0 0 1 5.145 0z" fill="#fff" class="C"/><text font-size="30" font-weight="500" fill="#00486d" class="F"><tspan x="77.1" y="67">!</tspan></text></g></svg>